<mxfile host="app.diagrams.net" modified="2024-06-25T03:36:47.237Z" agent="Mozilla/5.0 (Windows NT 10.0; Win64; x64) AppleWebKit/537.36 (KHTML, like Gecko) Chrome/126.0.0.0 Safari/537.36 Edg/126.0.0.0" etag="DFdK2xe6y4xU3or3W6D1" version="24.6.2" type="github">
  <diagram name="第 1 页" id="H0u8XUGsvLffEUkfQdRV">
    <mxGraphModel dx="2616" dy="2359" grid="1" gridSize="10" guides="1" tooltips="1" connect="1" arrows="1" fold="1" page="1" pageScale="1" pageWidth="827" pageHeight="1169" math="0" shadow="0">
      <root>
        <mxCell id="0" />
        <mxCell id="1" parent="0" />
        <mxCell id="qF9IXVnn8CLfa4eEaRER-32" value="&lt;font style=&quot;font-size: 50px;&quot;&gt;现状&lt;/font&gt;" style="rounded=0;whiteSpace=wrap;html=1;hachureGap=4;fontFamily=Architects Daughter;fontSource=https%3A%2F%2Ffonts.googleapis.com%2Fcss%3Ffamily%3DArchitects%2BDaughter;fontSize=30;fontColor=default;labelBackgroundColor=default;verticalAlign=top;align=left;" vertex="1" parent="1">
          <mxGeometry x="-287" y="-40" width="950" height="500" as="geometry" />
        </mxCell>
        <mxCell id="qF9IXVnn8CLfa4eEaRER-8" value="" style="group" vertex="1" connectable="0" parent="1">
          <mxGeometry x="-180" y="288" width="240" height="150" as="geometry" />
        </mxCell>
        <mxCell id="qF9IXVnn8CLfa4eEaRER-4" value="&lt;font style=&quot;font-size: 36px;&quot;&gt;会员中心&lt;/font&gt;" style="rounded=0;whiteSpace=wrap;html=1;hachureGap=4;fontFamily=Architects Daughter;fontSource=https%3A%2F%2Ffonts.googleapis.com%2Fcss%3Ffamily%3DArchitects%2BDaughter;" vertex="1" parent="qF9IXVnn8CLfa4eEaRER-8">
          <mxGeometry y="30" width="240" height="120" as="geometry" />
        </mxCell>
        <mxCell id="qF9IXVnn8CLfa4eEaRER-6" value="&lt;font style=&quot;font-size: 14px;&quot;&gt;&lt;b&gt;会员中心 - Token校验&lt;/b&gt;&lt;/font&gt;" style="rounded=0;whiteSpace=wrap;html=1;hachureGap=4;fontFamily=Architects Daughter;fontSource=https%3A%2F%2Ffonts.googleapis.com%2Fcss%3Ffamily%3DArchitects%2BDaughter;fillColor=#fff2cc;strokeColor=#d6b656;" vertex="1" parent="qF9IXVnn8CLfa4eEaRER-8">
          <mxGeometry y="12" width="240" height="30" as="geometry" />
        </mxCell>
        <mxCell id="qF9IXVnn8CLfa4eEaRER-10" value="" style="group" vertex="1" connectable="0" parent="1">
          <mxGeometry x="300" y="288" width="240" height="150" as="geometry" />
        </mxCell>
        <mxCell id="qF9IXVnn8CLfa4eEaRER-11" value="&lt;font style=&quot;font-size: 36px;&quot;&gt;CRM&lt;/font&gt;" style="rounded=0;whiteSpace=wrap;html=1;hachureGap=4;fontFamily=Architects Daughter;fontSource=https%3A%2F%2Ffonts.googleapis.com%2Fcss%3Ffamily%3DArchitects%2BDaughter;" vertex="1" parent="qF9IXVnn8CLfa4eEaRER-10">
          <mxGeometry y="30" width="240" height="120" as="geometry" />
        </mxCell>
        <mxCell id="qF9IXVnn8CLfa4eEaRER-12" value="&lt;b&gt;&lt;font style=&quot;font-size: 14px;&quot;&gt;CRM - Token校验&lt;/font&gt;&lt;/b&gt;" style="rounded=0;whiteSpace=wrap;html=1;hachureGap=4;fontFamily=Architects Daughter;fontSource=https%3A%2F%2Ffonts.googleapis.com%2Fcss%3Ffamily%3DArchitects%2BDaughter;fillColor=#dae8fc;strokeColor=#6c8ebf;" vertex="1" parent="qF9IXVnn8CLfa4eEaRER-10">
          <mxGeometry width="240" height="30" as="geometry" />
        </mxCell>
        <mxCell id="qF9IXVnn8CLfa4eEaRER-13" value="" style="group" vertex="1" connectable="0" parent="1">
          <mxGeometry x="60" y="10" width="240" height="150" as="geometry" />
        </mxCell>
        <mxCell id="qF9IXVnn8CLfa4eEaRER-14" value="&lt;span style=&quot;font-size: 36px;&quot;&gt;树根&lt;/span&gt;" style="rounded=0;whiteSpace=wrap;html=1;hachureGap=4;fontFamily=Architects Daughter;fontSource=https%3A%2F%2Ffonts.googleapis.com%2Fcss%3Ffamily%3DArchitects%2BDaughter;" vertex="1" parent="qF9IXVnn8CLfa4eEaRER-13">
          <mxGeometry y="30" width="240" height="120" as="geometry" />
        </mxCell>
        <mxCell id="qF9IXVnn8CLfa4eEaRER-15" value="&lt;font style=&quot;font-size: 14px;&quot;&gt;&lt;b&gt;营销中台 - Token校验&lt;/b&gt;&lt;/font&gt;" style="rounded=0;whiteSpace=wrap;html=1;hachureGap=4;fontFamily=Architects Daughter;fontSource=https%3A%2F%2Ffonts.googleapis.com%2Fcss%3Ffamily%3DArchitects%2BDaughter;fillColor=#f8cecc;strokeColor=#b85450;" vertex="1" parent="qF9IXVnn8CLfa4eEaRER-13">
          <mxGeometry width="240" height="30" as="geometry" />
        </mxCell>
        <mxCell id="qF9IXVnn8CLfa4eEaRER-16" value="" style="shape=flexArrow;endArrow=classic;startArrow=classic;html=1;rounded=0;hachureGap=4;fontFamily=Architects Daughter;fontSource=https%3A%2F%2Ffonts.googleapis.com%2Fcss%3Ffamily%3DArchitects%2BDaughter;fillColor=#f8cecc;strokeColor=#b85450;dashed=1;" edge="1" parent="1">
          <mxGeometry width="100" height="100" relative="1" as="geometry">
            <mxPoint x="-60" y="270" as="sourcePoint" />
            <mxPoint x="40" y="140" as="targetPoint" />
          </mxGeometry>
        </mxCell>
        <mxCell id="qF9IXVnn8CLfa4eEaRER-17" value="" style="shape=flexArrow;endArrow=classic;startArrow=classic;html=1;rounded=0;hachureGap=4;fontFamily=Architects Daughter;fontSource=https%3A%2F%2Ffonts.googleapis.com%2Fcss%3Ffamily%3DArchitects%2BDaughter;fillColor=#f8cecc;strokeColor=#b85450;dashed=1;" edge="1" parent="1">
          <mxGeometry width="100" height="100" relative="1" as="geometry">
            <mxPoint x="95" y="359.40999999999997" as="sourcePoint" />
            <mxPoint x="265" y="359.40999999999997" as="targetPoint" />
          </mxGeometry>
        </mxCell>
        <mxCell id="qF9IXVnn8CLfa4eEaRER-20" value="" style="shape=flexArrow;endArrow=classic;startArrow=classic;html=1;rounded=0;hachureGap=4;fontFamily=Architects Daughter;fontSource=https%3A%2F%2Ffonts.googleapis.com%2Fcss%3Ffamily%3DArchitects%2BDaughter;fillColor=#f8cecc;strokeColor=#b85450;dashed=1;" edge="1" parent="1">
          <mxGeometry width="100" height="100" relative="1" as="geometry">
            <mxPoint x="420" y="270" as="sourcePoint" />
            <mxPoint x="320" y="140" as="targetPoint" />
          </mxGeometry>
        </mxCell>
        <mxCell id="qF9IXVnn8CLfa4eEaRER-23" value="" style="group;rotation=45;" vertex="1" connectable="0" parent="1">
          <mxGeometry x="-30" y="190.07" width="30" height="30" as="geometry" />
        </mxCell>
        <mxCell id="qF9IXVnn8CLfa4eEaRER-21" value="" style="endArrow=none;html=1;rounded=0;hachureGap=4;strokeColor=default;align=center;verticalAlign=middle;fontFamily=Architects Daughter;fontSource=https%3A%2F%2Ffonts.googleapis.com%2Fcss%3Ffamily%3DArchitects%2BDaughter;fontSize=11;fontColor=default;labelBackgroundColor=default;" edge="1" parent="qF9IXVnn8CLfa4eEaRER-23">
          <mxGeometry width="50" height="50" relative="1" as="geometry">
            <mxPoint x="22.5" y="33" as="sourcePoint" />
            <mxPoint x="22.5" y="-9" as="targetPoint" />
          </mxGeometry>
        </mxCell>
        <mxCell id="qF9IXVnn8CLfa4eEaRER-22" value="" style="endArrow=none;html=1;rounded=0;hachureGap=4;strokeColor=default;align=center;verticalAlign=middle;fontFamily=Architects Daughter;fontSource=https%3A%2F%2Ffonts.googleapis.com%2Fcss%3Ffamily%3DArchitects%2BDaughter;fontSize=11;fontColor=default;labelBackgroundColor=default;" edge="1" parent="qF9IXVnn8CLfa4eEaRER-23">
          <mxGeometry width="50" height="50" relative="1" as="geometry">
            <mxPoint x="43.5" y="12" as="sourcePoint" />
            <mxPoint x="1.5" y="12" as="targetPoint" />
          </mxGeometry>
        </mxCell>
        <mxCell id="qF9IXVnn8CLfa4eEaRER-24" value="" style="group;rotation=45;dashed=1;dashPattern=8 8;strokeColor=none;" vertex="1" connectable="0" parent="1">
          <mxGeometry x="350" y="190" width="30" height="30" as="geometry" />
        </mxCell>
        <mxCell id="qF9IXVnn8CLfa4eEaRER-25" value="" style="endArrow=none;html=1;rounded=0;hachureGap=4;strokeColor=default;align=center;verticalAlign=middle;fontFamily=Architects Daughter;fontSource=https%3A%2F%2Ffonts.googleapis.com%2Fcss%3Ffamily%3DArchitects%2BDaughter;fontSize=11;fontColor=default;labelBackgroundColor=default;" edge="1" parent="qF9IXVnn8CLfa4eEaRER-24">
          <mxGeometry width="50" height="50" relative="1" as="geometry">
            <mxPoint x="22.5" y="33" as="sourcePoint" />
            <mxPoint x="22.5" y="-9" as="targetPoint" />
          </mxGeometry>
        </mxCell>
        <mxCell id="qF9IXVnn8CLfa4eEaRER-26" value="" style="endArrow=none;html=1;rounded=0;hachureGap=4;strokeColor=default;align=center;verticalAlign=middle;fontFamily=Architects Daughter;fontSource=https%3A%2F%2Ffonts.googleapis.com%2Fcss%3Ffamily%3DArchitects%2BDaughter;fontSize=11;fontColor=default;labelBackgroundColor=default;" edge="1" parent="qF9IXVnn8CLfa4eEaRER-24">
          <mxGeometry width="50" height="50" relative="1" as="geometry">
            <mxPoint x="43.5" y="12" as="sourcePoint" />
            <mxPoint x="1.5" y="12" as="targetPoint" />
          </mxGeometry>
        </mxCell>
        <mxCell id="qF9IXVnn8CLfa4eEaRER-27" value="" style="group;rotation=90;" vertex="1" connectable="0" parent="1">
          <mxGeometry x="160" y="340" width="30" height="30" as="geometry" />
        </mxCell>
        <mxCell id="qF9IXVnn8CLfa4eEaRER-28" value="" style="endArrow=none;html=1;rounded=0;hachureGap=4;strokeColor=default;align=center;verticalAlign=middle;fontFamily=Architects Daughter;fontSource=https%3A%2F%2Ffonts.googleapis.com%2Fcss%3Ffamily%3DArchitects%2BDaughter;fontSize=11;fontColor=default;labelBackgroundColor=default;" edge="1" parent="qF9IXVnn8CLfa4eEaRER-27">
          <mxGeometry width="50" height="50" relative="1" as="geometry">
            <mxPoint x="8" y="33" as="sourcePoint" />
            <mxPoint x="37" y="3" as="targetPoint" />
          </mxGeometry>
        </mxCell>
        <mxCell id="qF9IXVnn8CLfa4eEaRER-29" value="" style="endArrow=none;html=1;rounded=0;hachureGap=4;strokeColor=default;align=center;verticalAlign=middle;fontFamily=Architects Daughter;fontSource=https%3A%2F%2Ffonts.googleapis.com%2Fcss%3Ffamily%3DArchitects%2BDaughter;fontSize=11;fontColor=default;labelBackgroundColor=default;" edge="1" parent="qF9IXVnn8CLfa4eEaRER-27">
          <mxGeometry width="50" height="50" relative="1" as="geometry">
            <mxPoint x="37" y="33" as="sourcePoint" />
            <mxPoint x="8" y="3" as="targetPoint" />
          </mxGeometry>
        </mxCell>
        <mxCell id="qF9IXVnn8CLfa4eEaRER-31" value="&lt;h1 style=&quot;margin-top: 0px;&quot;&gt;&lt;font face=&quot;Helvetica&quot;&gt;Token办法规则都不一致&lt;/font&gt;&lt;/h1&gt;&lt;p&gt;&lt;/p&gt;&lt;ul&gt;&lt;li&gt;&lt;font face=&quot;DTaDNkgC4vTeK8XrR2FM&quot;&gt;服务和服务之间接口请求调用难度增加&lt;/font&gt;&lt;/li&gt;&lt;li&gt;&lt;font face=&quot;DTaDNkgC4vTeK8XrR2FM&quot;&gt;系统页面之间无法复用&lt;/font&gt;&lt;/li&gt;&lt;li&gt;&lt;font face=&quot;DTaDNkgC4vTeK8XrR2FM&quot;&gt;用户需要进行多端重复登录&lt;/font&gt;&lt;/li&gt;&lt;/ul&gt;&lt;p&gt;&lt;/p&gt;" style="text;html=1;whiteSpace=wrap;overflow=hidden;rounded=0;fontFamily=Architects Daughter;fontSource=https%3A%2F%2Ffonts.googleapis.com%2Fcss%3Ffamily%3DArchitects%2BDaughter;fontSize=11;fontColor=default;labelBackgroundColor=default;" vertex="1" parent="1">
          <mxGeometry x="63" y="180" width="250" height="120" as="geometry" />
        </mxCell>
        <mxCell id="qF9IXVnn8CLfa4eEaRER-33" value="&lt;font style=&quot;font-size: 50px;&quot;&gt;现状&lt;/font&gt;" style="rounded=0;whiteSpace=wrap;html=1;hachureGap=4;fontFamily=Architects Daughter;fontSource=https%3A%2F%2Ffonts.googleapis.com%2Fcss%3Ffamily%3DArchitects%2BDaughter;fontSize=30;fontColor=default;labelBackgroundColor=default;verticalAlign=top;align=left;" vertex="1" parent="1">
          <mxGeometry x="-280" y="490" width="953" height="450" as="geometry" />
        </mxCell>
        <mxCell id="qF9IXVnn8CLfa4eEaRER-58" value="&lt;span style=&quot;font-size: 18px;&quot;&gt;DD平台&lt;/span&gt;" style="rounded=0;whiteSpace=wrap;html=1;hachureGap=4;fontFamily=Architects Daughter;fontSource=https%3A%2F%2Ffonts.googleapis.com%2Fcss%3Ffamily%3DArchitects%2BDaughter;fontSize=11;fontColor=default;labelBackgroundColor=default;" vertex="1" parent="1">
          <mxGeometry x="-222" y="570" width="832" height="60" as="geometry" />
        </mxCell>
        <mxCell id="qF9IXVnn8CLfa4eEaRER-34" value="" style="group;movable=1;resizable=1;rotatable=1;deletable=1;editable=1;locked=0;connectable=1;" vertex="1" connectable="0" parent="1">
          <mxGeometry x="-219.99903614457827" y="810" width="159.99903614457833" height="100" as="geometry" />
        </mxCell>
        <mxCell id="qF9IXVnn8CLfa4eEaRER-56" value="" style="group;movable=1;resizable=1;rotatable=1;deletable=1;editable=1;locked=0;connectable=1;" vertex="1" connectable="0" parent="qF9IXVnn8CLfa4eEaRER-34">
          <mxGeometry width="159.99903614457833" height="100" as="geometry" />
        </mxCell>
        <mxCell id="qF9IXVnn8CLfa4eEaRER-35" value="&lt;font style=&quot;font-size: 36px;&quot;&gt;会员中心&lt;/font&gt;" style="rounded=0;whiteSpace=wrap;html=1;hachureGap=4;fontFamily=Architects Daughter;fontSource=https%3A%2F%2Ffonts.googleapis.com%2Fcss%3Ffamily%3DArchitects%2BDaughter;movable=1;resizable=1;rotatable=1;deletable=1;editable=1;locked=0;connectable=1;" vertex="1" parent="qF9IXVnn8CLfa4eEaRER-56">
          <mxGeometry y="20" width="159.99903614457833" height="80" as="geometry" />
        </mxCell>
        <mxCell id="qF9IXVnn8CLfa4eEaRER-36" value="&lt;font style=&quot;font-size: 14px;&quot;&gt;&lt;b&gt;SSO - Token校验&lt;/b&gt;&lt;/font&gt;" style="rounded=0;whiteSpace=wrap;html=1;hachureGap=4;fontFamily=Architects Daughter;fontSource=https%3A%2F%2Ffonts.googleapis.com%2Fcss%3Ffamily%3DArchitects%2BDaughter;fillColor=#d5e8d4;strokeColor=#82b366;movable=1;resizable=1;rotatable=1;deletable=1;editable=1;locked=0;connectable=1;" vertex="1" parent="qF9IXVnn8CLfa4eEaRER-56">
          <mxGeometry width="159.99903614457833" height="20" as="geometry" />
        </mxCell>
        <mxCell id="qF9IXVnn8CLfa4eEaRER-37" value="" style="group;movable=1;resizable=1;rotatable=1;deletable=1;editable=1;locked=0;connectable=1;" vertex="1" connectable="0" parent="1">
          <mxGeometry x="9.998795180722908" y="690" width="159.99903614457833" height="100" as="geometry" />
        </mxCell>
        <mxCell id="qF9IXVnn8CLfa4eEaRER-38" value="&lt;font style=&quot;font-size: 36px;&quot;&gt;CRM&lt;/font&gt;" style="rounded=0;whiteSpace=wrap;html=1;hachureGap=4;fontFamily=Architects Daughter;fontSource=https%3A%2F%2Ffonts.googleapis.com%2Fcss%3Ffamily%3DArchitects%2BDaughter;movable=1;resizable=1;rotatable=1;deletable=1;editable=1;locked=0;connectable=1;" vertex="1" parent="qF9IXVnn8CLfa4eEaRER-37">
          <mxGeometry y="20" width="159.99903614457833" height="80" as="geometry" />
        </mxCell>
        <mxCell id="qF9IXVnn8CLfa4eEaRER-39" value="&lt;b&gt;&lt;font style=&quot;font-size: 14px;&quot;&gt;SSO - Token校验&lt;/font&gt;&lt;/b&gt;" style="rounded=0;whiteSpace=wrap;html=1;hachureGap=4;fontFamily=Architects Daughter;fontSource=https%3A%2F%2Ffonts.googleapis.com%2Fcss%3Ffamily%3DArchitects%2BDaughter;fillColor=#d5e8d4;strokeColor=#82b366;movable=1;resizable=1;rotatable=1;deletable=1;editable=1;locked=0;connectable=1;" vertex="1" parent="qF9IXVnn8CLfa4eEaRER-37">
          <mxGeometry width="159.99903614457833" height="20" as="geometry" />
        </mxCell>
        <mxCell id="qF9IXVnn8CLfa4eEaRER-40" value="" style="group;movable=1;resizable=1;rotatable=1;deletable=1;editable=1;locked=0;connectable=1;" vertex="1" connectable="0" parent="1">
          <mxGeometry x="-220" y="690" width="159.99903614457833" height="100" as="geometry" />
        </mxCell>
        <mxCell id="qF9IXVnn8CLfa4eEaRER-41" value="&lt;span style=&quot;font-size: 36px;&quot;&gt;树根&lt;/span&gt;" style="rounded=0;whiteSpace=wrap;html=1;hachureGap=4;fontFamily=Architects Daughter;fontSource=https%3A%2F%2Ffonts.googleapis.com%2Fcss%3Ffamily%3DArchitects%2BDaughter;movable=1;resizable=1;rotatable=1;deletable=1;editable=1;locked=0;connectable=1;" vertex="1" parent="qF9IXVnn8CLfa4eEaRER-40">
          <mxGeometry y="20" width="159.99903614457833" height="80" as="geometry" />
        </mxCell>
        <mxCell id="qF9IXVnn8CLfa4eEaRER-42" value="&lt;font style=&quot;font-size: 14px;&quot;&gt;&lt;b&gt;SSO - Token校验&lt;/b&gt;&lt;/font&gt;" style="rounded=0;whiteSpace=wrap;html=1;hachureGap=4;fontFamily=Architects Daughter;fontSource=https%3A%2F%2Ffonts.googleapis.com%2Fcss%3Ffamily%3DArchitects%2BDaughter;fillColor=#d5e8d4;strokeColor=#82b366;movable=1;resizable=1;rotatable=1;deletable=1;editable=1;locked=0;connectable=1;" vertex="1" parent="qF9IXVnn8CLfa4eEaRER-40">
          <mxGeometry width="159.99903614457833" height="20" as="geometry" />
        </mxCell>
        <mxCell id="qF9IXVnn8CLfa4eEaRER-60" value="&lt;span style=&quot;font-size: 18px;&quot;&gt;DD平台&lt;/span&gt;" style="rounded=0;whiteSpace=wrap;html=1;hachureGap=4;fontFamily=Architects Daughter;fontSource=https%3A%2F%2Ffonts.googleapis.com%2Fcss%3Ffamily%3DArchitects%2BDaughter;fontSize=11;fontColor=default;labelBackgroundColor=default;" vertex="1" parent="1">
          <mxGeometry x="210" y="640" width="400" height="40" as="geometry" />
        </mxCell>
        <mxCell id="qF9IXVnn8CLfa4eEaRER-61" value="&lt;span style=&quot;font-size: 18px;&quot;&gt;DD平台&lt;/span&gt;" style="rounded=0;whiteSpace=wrap;html=1;hachureGap=4;fontFamily=Architects Daughter;fontSource=https%3A%2F%2Ffonts.googleapis.com%2Fcss%3Ffamily%3DArchitects%2BDaughter;fontSize=11;fontColor=default;labelBackgroundColor=default;" vertex="1" parent="1">
          <mxGeometry x="-222" y="640" width="400" height="40" as="geometry" />
        </mxCell>
      </root>
    </mxGraphModel>
  </diagram>
</mxfile>
